<?xml version="1.0" encoding="UTF-8"?>
<svg id="Layer_1" xmlns="http://www.w3.org/2000/svg" version="1.1" viewBox="0 0 168 168">
  <!-- Generator: Adobe Illustrator 30.7.0, SVG Export Plug-In . SVG Version: 2.1.4 Build 114)  -->
  <defs>
    <style>
      .st0 {
        fill: #fdfd02;
      }

      .st1 {
        fill: #010165;
      }
    </style>
  </defs>
  <g>
    <path class="st0" d="M167.67,83.94c0,46.21-37.46,83.67-83.67,83.67S.33,130.14.33,83.94,37.79.27,84,.27s83.67,37.46,83.67,83.67ZM155.65,84.07c0-39.57-32.08-71.65-71.65-71.65S12.35,44.5,12.35,84.07s32.08,71.65,71.65,71.65,71.65-32.08,71.65-71.65Z"/>
    <path class="st1" d="M155.65,84.07c0,39.57-32.08,71.65-71.65,71.65S12.35,123.64,12.35,84.07,44.43,12.42,84,12.42s71.65,32.08,71.65,71.65ZM112.53,109.38c.3-.56-.56-.81-.61-.25,0,.54-.35.63-.62.52-.12-.05-.36-.13-.41-.31-.05-.16.46-.5.5-.96.01-.16-.12-.31-.32-.19-.08.05-.11.1-.4.13-.41-1.31-2.19-.35-3.29-1.6-.15-.17.39-.58.57-.54.14.03.24.4.35.56.47.09,1.1,0,1.5.5.57-.74,1.44-.71,2.38-.13.19-.53.37-1.17.21-1.72-.11-.4-.74-.34-.73-.11,0,.17.05.56-.17.76-.18.17-.6-.12-.76-.18-.33-.12-.71.86-1.16.66-.16-.07-.22-.42-.17-.55s1.03-.08,1.52-1.58l2.24.49c-.68-1.01.42-1.53.38-2.03-.04-.4-1.24-.42-1.15-.7l.21-.64c.1-.31-.73-.48-1.01-.6,1.72-.29.45-.74.35-2.77l-1.34-1.02c-.19.66-.48,1.16-.83,1.61-.5-.48-.4-.89-.14-1.2.63-.75,1.61-.48,1.83-1.03.08-.2.07-.68-.12-.92-.95-1.21,0-2.24-.81-2.5-.88-.27-.31,2.19-2.36,2.12.35-1.22,1.35-1.65.82-2.48,1.55.18,2-2.49,1.43-3.27-.2-.27-.6-.49-1.03-.79.62-.16.86-.54.75-.91-.18-.63-1.55-.18-1.51-.97.03-.52.95-.18,1.29-.51.16-.15.19-.5.04-.75l-1.09-1.71c.3-.14.62-.53.49-.73-.1-.16-.58-.37-.57-.71.01-.3.46-.55.55-.73.37-.7-1.25-1.08-.55-2.4-.78-.03-1.43.15-1.96-.18.41-.08,1.62.01,1.63-.55-.02-1.1-.1-2.6-.47-3.53-.66-.78-1-1.51-.44-2.49-.52-.36-.28-1.04-.36-1.39-.58-2.6.02-3.5-1.46-3.71.34-.12.66-.43.62-.73-.02-.19-.37-.46-.41-.74l-.2-1.48c-.27-.18-.95-.06-1.11-.53.23-.12.59-.09.73-.18.13-.08.04-.5-.17-.49-.09,0-.27.02-.52-.21.33-.16.68-.52.51-.92-.1-.23-.35-.51-.68-.6-.58-.16-.97.97-1.61.85-.28-.05-.41-.46-.52-.8l-1.34-.52c.13-.48.23-.94,0-1.29-.12-.2-.47-.29-.78-.67.63-.2,1,.1,1.53.33.27-.93.21-1.61.12-2.48l-.3-.59.34-.63c-.08-.57-.54-1.02-.33-1.72.4.43.46.97,1.18,1.19.3-.54.76-1.4.57-1.97-.33-.32-.46-.49-.26-.8s1.83.21,1.1-.49c-.25-.24-.43-.76-.18-.94.15-.1.46-.37.68-.16-.06.38,0,.8.08.98.07.15.57-.18.66-.04.22.35.57.68,1.03.85.27.1.57-.33.81-.41.33.23.77.48.98.3.18-.16.17-.48.44-.81.39,1.72,2.44.55,3.19,2.35-.03.28-.28.72-.16,1.05.74.32,1.39.8,1.63,1.5-1.58.43,0,.98-.61,2.42.55,1.12-.21,2.43.38,2.24l.66-.22c-.05.53-.4.86-.59,1.33-.27.65.11,1.33.56,1.66.94.68,3.48-.35,6.06-.34,1.08,0,2.57-.51,2.74-1.76.19-1.42-.93-5.74-1.65-7.83-.87-2.53-2.15-5.04-4.56-6.48-1.82-1.09-4.05-1.48-6.14-1.32l-.41.48-.42-.54-6.61,1.2c-1.7.56-3.21,1.92-4.46,3.12-2.1,2.02-3.05,4.67-2.97,7.65l1.33,10.47c.1.76.23,1.31.36,2.02l.39,2.11c.16.87.25,1.75.41,2.62l.52,2.86c.33,1.81.35,3.49.77,5.29.16.69.09,1.4.23,2.14l.91,4.9c.12.64.47,1.34.68,1.84-.13,1.59.21,3.01.58,4.57l1.42,5.99c.97,2.63,2.6,4.66,4.61,6.42.63.55,1.11,1.03,2.02,1.4l2.02.82c3.47.98,7.14.87,10.51-.3,1.16-.4,2.19-.61,3.14-1.46,1.48-1.33,2.84-2.77,3.85-4.52s.96-5,.49-7.33-.46-4.88-1.25-7.2c-.28-.84-7.29,1.02-7.12.73l-.36.62c-.25-.44-.6-.6-.94-.55-.27.03-1,.86-.98,1.14.04.53.79.82.79,1.21,0,.22-.24.44-.42.66-.36.44.12.94.4,1.13.37.25.82.27,1.36-.09l.43,1.36c-.53-.17-.97-.53-1.49-.33-.38.15-.46,1.07-.3,1.4.76.39,1.96.01,2.56-.8.39-.53,1.64-.49,1.73.33-.2-.06-.78-.36-1.02-.17-.57.48-.57,1.2-.63,1.94-.6-.58-1.8-.91-2.48-.41.1.75-.03,1.72.05,2.51l.19,1.83-1.33,1.6c0,.23.29.72.17.95-.57,1.04-2.23.71-2.59,1.83,1.24.43,2.33-.4,3.06-1.17-.87-.5.51-.71,1.05-.32.29.21-.05.63-.26.5-.09-.05-.37-.16-.38.12-.02.38.74.33.92.14l.56-.56,1.4.21c-.13-.73-.6-.85-1.38-1.06.41-.12.96-.52.71-.83-.15-.16-.75.29-.94.17-.16-.11-.34-.46-.35-.74-.16-.17-.2-.3-.19-.4.02-.17.2-.23.3-.21.37.1.31.61.74.83.16.08.57.05.62-.2.19-.97-.2-1.72-.44-2.65.91-.23,1.67-.14,2.32.16,0,.65-.64.96-.62,1.39l.08,1.57-.38-.48c-.24-.3-.33.25-.33,1.2.75-.14,1.44.06,1.78.66-.41.06-.74.19-.71.34l.12.72-1.72.03c.33.49.35,1.04.08,1.19-.18.1-.7-.11-.89.02-.68.5-.53,1.64-.29,2.51-.51.06-.76-.35-.89-.67-.14-.35.17-.7.38-1.1.38-.73-.5-1.28-1.14-1.48-.54-.17-1.16.24-1.52.86.58.14.99-.15,1.53-.42.64.16.39.7-.27.56-.03.87.21,1.71-.29,2.54-.21.34-1.22.39-1.57.19-.14-.08-.2-.59-.09-.63.28-.07.54-.17.62-.28.05-.08.02-.31.11-.66-.6-.19-1.24.01-1.94.4-.2-.36-.24-.65-.68-.82-.15.73-.38.83-.93,1.03-.29.1-.5.23-1.15-.34.37-.07.54-.36.57-.68.02-.2-.19-.76-.39-.68-.47.2-.48.86-.59,1.18-.32.23-.66-.09-.45-.47ZM81.02,106.29c.17.03.43.05.61-.09.51-.39-1.2-.67-1.17-.91l.08-.55c-.27-.36-.78-.46-.88-1.02.51-.11.91.06,1.43.19-.01-.93-.42-1.68-1.16-2.05,1.97-1.04-1.2-2.03-.59-3.65-.22-1.33-.21-2.56-.68-4.09l-.66-2.15c-.03-.1-.39-.33-.33-.39l.31-.33c-.5-.31-.69-.91-.32-1.52l-1.11-1.37c.75-.51.72-1.43.4-2.04-.77.44-1.3.47-2.1.27.45-.31.59-.55.59-1.21.16.15.52.36.68.25l.57-.39c.08.36.3.72.48.77.25.07.77-.76,1.18-.85.16-.03.41.48.58.44.49-.13,1.23-.27,1.53.22l-1.12.33c-.3.62.83.7.73,1.08-.03.12-.23.47-.14.59l2.6.5c-.53.43-1.11.5-1.76.59.25.52.59.54.84.73l-.92.8c.04.71.6,1.03,1.06,1.4.04.26-.01.95.35,1.05.41.11.79.13.99.33s.64,2.35-.29,2.58c.64.28.91.14,1.44.17.16.77.52,1.19,1.11,1.55l.02,1.19c-.53-.02-.79.08-1.01.17-.28.11-.18.79.09.77.54-.05,1.05.08.94.63-.28.02-.72-.07-.96.34.88.52,1.05,1.35.94,2.31l1.34.22c-.3.32-.44.47-.48.67-.04.18.15.32.22.57l.84,3.23c-.02.17-.52.55-.36.75.13.16.29.39.87.32-.3,1.08.59,1.7.83,2.61.31,1.19.4,2.84,1.98,3.04.84.1,1.79-.15,2.49.86.17-.43.68-.77.87-.64.5.33.87.26,1.23.25.63-.03.74-.34.9-.85.12.36.35.59.48.56s.33-.44.46-.64c.55.43,1.29.85,2.02.42l-7.1-45.11c-.83-.51-.24-1.18-.32-1.73l-1.78-11.41c-.19-1.24-.7-2.38-.59-3.71.03-.33-.35-1.08-.64-1.24l-2.77-.76c-2.04-.15-6.46,1.49-6.51,1.55-.88,1.11.31,5.89,1.21,8.35,0,.52-.42,1.33-.11,1.88.25.43.81.45,1.17.64-.29.21-.59.37-.67.55-.03.06.73,1.98.44,3.34-.34.5-.6,1.36.21,1.66l.43-1.51c.64.38,1.04.5,1.7.46.09.48.09.91-.1,1.28-.35-.29-.67-.35-.91-.34-.14,0-.37.23-.32.36l.4,1.13c2.19.8.84,2.75,2.04,1.69.24.27.1.5-.03.8-.26.58-1.15.06-1.43.55-.35.61.25,1.45.87,2.35-.65,0-.99.28-1.16.94l1.43.4c-1.36,1-.78,1.88-1.28,3.02.75.01.83-.58,1.18-1.01.27.88-.33,1.41-.4,2.12.41.21.67.27.96.61l-1.42,1.24c-.63-.41-1.04-.32-1.84.09.22-.89.07-1.32-.61-1.67.07-.18.44-.29.6-.25.28.07.44.94.9.75.07-.03.09-.11.16-.42-.85-.63-1.11-1.55-1.49-2.53-.4.22-.78.39-.99.39-.19,0-.37-.4-.45-.89l1.67.16c.29-.9-2.42-.08-2.16-2.46.03-.29.04-.57-.25-.69-.48-.19-.66.93-1.45.44.14-.67.58-1.21,1.04-1.78-1.09-.84-2-1.28-3.23-1.66.91-.57,1.9-.15,2.47.39.34-.3.23-.7.07-.85-.25-.23-.54-.32-1.04-.39.28-.33.29-.61.19-.88-.15-.39-.3-.7-.77-.53.19.76.19,1.35-.18,1.8-.19-.31-.35-.62-.49-.7-.09-.05-.34.17-.35.27l-.08.53c-.03.2-.08.51-.17.61s-.46.12-.47,0c-.02-.14,0-.52-.08-.91-.69.45-1.22.07-1.57-.49l-.24-.21c.11.14.22.04.12-.11.07.23.27.14.3.05.43.29.95.19,1.49.1.18-.03.46.36.61.28.63-.36.03-1.47,1.1-1.92.1-.51-.04-1.31-.12-1.78-.14-.05-.66-.21-.64-.37l.22-1.64c-.7.15-1.3.01-1.51-.54-.19-.5-.2-1.11.33-1.64-.31-.49-.75-.1-.96-.13-1.48-.24-1.83.76-2.64.43-.29-.12-.46-.77-.22-.94.55.1,1.2.26,1.59-.13.55-.54.83-1.16,1.21-1.87-.9-.21-.83-.77-.91-1.44-.16-1.37-1.09-2.42-1.62-3.64-.55-1.28-1.95-1.94-3.25-1.19-.79-.32-1.5-.09-2.06.55-1.02-.24-1.82.1-2.66.39-1.07.37-1.55,1.12-1.28,2.28l1.16,4.84,1.11,6.76c-.48.77-.38,1.61.31,2.19l.83,5.48.69,4.82.84,5.31c.19,1.22.57,2.35.7,3.63l.36,3.46.53,1.11c-.13,1.57.49,2.89.68,4.37s.37,2.79.57,4.27l.67,4.97c.13.95.04,1.57.21,2.53l.81,4.73c.16.91.42,2.23,1.56,2.02.41-.07.86-.55,1.28-.19.25.21.34.78.4,1.16,1.62.56,3.22-.6,4.76-.89,1.21-.22,2.42.12,3.55-.71l-1.09-6.38c-.16-.91-.47-1.6.26-2.47l-1.27-1.73s-.05-.07-.07-.09c-.32-.21,0-.4.13-.28l.2.16ZM104.69,55.13c.14-.63.06-.99-.37-1.44.22-.2.74-.13.94-.2.27-.39.03-.74-.31-.89-.19-.08-.37-.43-.69-.13.29.37.19.69.13.85-.06.15-.48.22-.63.31l-.11,1.52c-.03.47-.06.53.07.67.25.25.75.32.79.14l.18-.83ZM103.5,56.4c.05-.31-.62-.55-.94-.4s-.34.39-.27.71c.04.21.26.37.5.31.17-.04.61-.02.71-.63ZM63.28,101.85c.57-.38.57-.83.29-1.15-.41-.15-1.07.2-1.65.35.13-.33.2-.65.05-.75-.12-.08-.66.08-.75-.04-.23-.33.57-.84.78-1.11.41-.54-.55-1.38-1.41-1.55.57-.63,1.42-.87,2.43-.88l-.26-4.16c-.84.22-1.35.45-2.13.21.44-.27.89-.28,1.46-.42-.27-2.11.92-3.37-1.02-3.94,1.06-.82.26-2.32,0-3.96.34-1.08,0-2.01-.58-2.8.09-.5.42-1.25-.32-1.61.29-.21.4-.38.46-.49.05-.09-.22-.34-.24-.47l-.52-3.16c-.11-.64.08-.95-.04-1.62-.35-1.84-.66-4.91-.8-4.99-.15-.09-.35-.09-.82-.3.2-.07.61-.32.62-.59.03-2.61-.72-4.98-1.08-7.49-.1-.66.3-3.17-.67-4.12-.39-.38-1.1-.73-1.87-.63-2.44.33-4.95.53-7.3,1.38-1.02.89-.92,3-.46,4.16l.09,1.57c.74,1.49.55,2.85.78,4.39l1.22,8.38c.13.9-.02,1.97.32,2.77.53,1.27.46,2.39.66,3.7l.48,3.15c.21,3.55,1.25,6.86,1.66,10.31l.52,4.35.97,7.31c.08.59.17.68.31,1.13.48,1.52-.23,3.53-1.35,4.75-.65.18-1.53.64-2.14.74l-3.1.54c-.82.14-1.49.12-1.85.82s-.16,1.15.11,1.96c.55,1.59.79,4.97,3.16,4.39l1.12.22c1.91-.65,4.23.56,6.49-.29l2.84-1.07c2.16-.81,5.06-6.93,4.99-10.2-.04-1.73-.28-3.48-.52-5.2-.1-.7-.65-1.53-.14-2.28.15-.22.12-.81,0-.98s-.51-.3-.74-.34ZM104.65,57.97c0-.6-.3-.8-.62-.89-.29-.08-.64.08-.83.4s.32.63.41.88c.14.4.29.59.67.43.19-.08.37-.39.37-.83ZM104.86,59.81l-1.61-.86c-.41.32-.68.52-.79,1.12,1.69-.03,3.5.32,2.4-.26ZM83.22,71.94c-.16-.6-.43-1.04-.9-1.54-.51.62-.57,1.18-.54,1.77l1.44-.23ZM115.59,107.37c1.14-.43.4-2.12-.06-2.16-.12-.01-.41,0-.44.13-.19.81.69.92.6,1.3-.04.17-.28.41-.11.74ZM113.96,106.92c-.47-.31-.7-.6-.98-1.08-.22.19-.42.58-.36.79.06.2.34.38.53.67.14.23-.29.62-.42.54l-.61-.35c-.38.19-.12.69.02.87.42.52,1.31-.16,1.81-1.45ZM115.29,108.74c.38-.13.56-.79.37-.99-.33-.37-.78-.06-.89.2-.18.42-.13,1.01.52.79Z"/>
  </g>
  <g>
    <g>
      <path class="st0" d="M72.98,70.67c.35.56.88.94,1.57.49.08.39.07.77.08.91.02.13.38.1.47,0s.14-.41.17-.61l.08-.53c.02-.1.26-.32.35-.27.13.08.3.39.49.7.37-.45.36-1.05.18-1.8.47-.17.62.14.77.53.1.27.09.55-.19.88.5.07.79.17,1.04.39.16.15.27.55-.07.85-.56-.54-1.56-.97-2.47-.39,1.23.38,2.14.82,3.23,1.66-.47.57-.9,1.12-1.04,1.78.79.49.97-.63,1.45-.44.3.12.28.4.25.69-.26,2.38,2.45,1.56,2.16,2.46l-1.67-.16c.08.49.26.89.45.89.21,0,.59-.17.99-.39.39.98.64,1.9,1.49,2.53-.07.31-.09.39-.16.42-.45.19-.62-.68-.9-.75-.16-.04-.53.08-.6.25.68.35.83.79.61,1.67.8-.41,1.21-.5,1.84-.09l1.42-1.24c-.29-.34-.55-.4-.96-.61.07-.71.67-1.24.4-2.12-.35.43-.43,1.02-1.18,1.01.5-1.14-.08-2.02,1.28-3.02l-1.43-.4c.17-.66.51-.93,1.16-.94-.61-.9-1.21-1.74-.87-2.35.29-.5,1.18.03,1.43-.55.13-.29.27-.53.03-.8-1.2,1.06.15-.89-2.04-1.69l-.4-1.13c-.05-.13.19-.36.32-.36.24-.01.56.05.91.34.19-.38.19-.8.1-1.28-.66.04-1.07-.08-1.7-.46l-.43,1.51c-.82-.3-.55-1.17-.21-1.66.3-1.36-.47-3.27-.44-3.34.08-.18.38-.34.67-.55-.35-.19-.92-.21-1.17-.64-.32-.55.1-1.36.11-1.88-.9-2.46-2.08-7.24-1.21-8.35.05-.06,4.47-1.69,6.51-1.55l2.77.76c.29.16.66.92.64,1.24-.11,1.33.4,2.47.59,3.71l1.78,11.41c.09.56-.5,1.22.32,1.73l7.1,45.11c-.73.44-1.47.02-2.02-.42-.13.21-.33.61-.46.64s-.35-.2-.48-.56c-.17.5-.27.82-.9.85-.36.02-.73.09-1.23-.25-.19-.13-.7.22-.87.64-.7-1.01-1.65-.76-2.49-.86-1.58-.2-1.67-1.85-1.98-3.04-.24-.9-1.13-1.53-.83-2.61-.58.07-.74-.15-.87-.32-.16-.2.34-.57.36-.75l-.84-3.23c-.07-.26-.26-.39-.22-.57.04-.2.19-.35.48-.67l-1.34-.22c.11-.96-.06-1.78-.94-2.31.24-.41.69-.33.96-.34.11-.55-.4-.68-.94-.63-.27.03-.37-.65-.09-.77.21-.09.48-.19,1.01-.17l-.02-1.19c-.59-.36-.95-.78-1.11-1.55-.53-.03-.8.11-1.44-.17.92-.23.48-2.39.29-2.58s-.58-.22-.99-.33c-.36-.1-.31-.79-.35-1.05-.46-.37-1.02-.69-1.06-1.4l.92-.8c-.24-.19-.58-.21-.84-.73.65-.08,1.23-.15,1.76-.59l-2.6-.5c-.09-.12.11-.47.14-.59.1-.38-1.03-.46-.73-1.08l1.12-.33c-.3-.49-1.04-.35-1.53-.22-.16.04-.41-.47-.58-.44-.42.08-.93.91-1.18.85-.18-.05-.4-.42-.48-.77l-.57.39c-.16.11-.52-.1-.68-.25,0,.67-.14.91-.59,1.21.8.2,1.33.17,2.1-.27.32.61.35,1.53-.4,2.04l1.11,1.37c-.38.61-.18,1.21.32,1.52l-.31.33c-.06.06.3.29.33.39l.66,2.15c.47,1.53.46,2.76.68,4.09-.61,1.62,2.57,2.61.59,3.65.74.37,1.15,1.12,1.16,2.05-.52-.13-.92-.3-1.43-.19.1.56.61.65.88,1.02l-.08.55c-.03.24,1.68.52,1.17.91-.18.14-.44.12-.61.09l-.26.21,1.27,1.73c-.73.87-.42,1.56-.26,2.47l1.09,6.38c-1.12.83-2.34.49-3.55.71-1.54.29-3.14,1.44-4.76.89-.07-.38-.16-.95-.4-1.16-.42-.36-.87.12-1.28.19-1.14.2-1.4-1.11-1.56-2.02l-.81-4.73c-.17-.96-.08-1.58-.21-2.53l-.67-4.97c-.2-1.47-.39-2.83-.57-4.27s-.81-2.8-.68-4.37l-.53-1.11-.36-3.46c-.13-1.28-.51-2.41-.7-3.63l-.84-5.31-.69-4.82-.83-5.48c-.7-.58-.79-1.42-.31-2.19l-1.11-6.76-1.16-4.84c-.28-1.16.21-1.9,1.28-2.28.84-.29,1.63-.63,2.66-.39.56-.65,1.28-.87,2.06-.55,1.3-.76,2.7-.09,3.25,1.19s1.45,2.26,1.62,3.64c.08.68.01,1.23.91,1.44-.38.7-.66,1.32-1.21,1.87-.39.39-1.04.23-1.59.13-.24.17-.07.82.22.94.81.34,1.16-.67,2.64-.43.21.04.65-.36.96.13-.53.53-.53,1.14-.33,1.64.22.56.81.69,1.51.54l-.22,1.64c-.02.16.5.32.64.37.08.47.22,1.27.12,1.78-1.07.45-.48,1.57-1.1,1.92-.14.08-.42-.31-.61-.28-.54.08-1.06.18-1.49-.1l-.18.26ZM70.03,62.53l-1.94.23c0,.58.33.79.62.71,1.26-.36,1.58-.05,1.32-.94ZM74.74,67.62c-.34-1.3-2.57-1.11-2.35-1.76.05-.16.53-.21.73-.25.49-.1.41-.91,0-1.08-.31-.13-.61-.27-1.02-.03-.23.13-.55,1.62-.36,1.88.21.3.55.27.87.4l2.12.83ZM70.54,67.13c-.06-.07-.14-.13-.31-.11-.15.02-.18.07-.38.22s-.41.32-.31.54c.04.08.23.16.17.5-.02.13.45.07.45-.07.01-.51.63-.75.37-1.08ZM72.99,67.7c-.32-.19-.62.34-.46.57l.34.49c.19.27.54.63.86.54s.73-.02.95-.42c-.67-.32-1.03-.78-1.69-1.18ZM72.73,70.46c.11.14.22.04.12-.11l-.12.11ZM69.78,72.05l-1.16-.8c.09.36.09.81-.14.91l-.55.23c.7.54,1.57.15,1.86-.34ZM79.35,81.29c.35-.4.51-.67,1.01-.9l-.6-.5c.02.31-.09.65-.29.76-.51-.25-1.09-.23-1.49.16.55,0,1.04.39,1.36.48ZM83.1,84.05c0-.19.52-.45.46-.59-.87-.27-1.29-.74-2.17-.48.94,1.37,2.04,2.24,2.33,1.61.04-.09.09-.27-.13-.24-.1.01-.47.1-.48-.3ZM79.4,83.92c-.47-.39-1.76.48-2.6-1.02-.37.42-.31.74-.43,1.17.37.19.71.43,1.09.74.55-.95,2.96-.05,1.94-.89ZM80.82,106.13c-.13-.12-.45.07-.13.28l.13-.28Z"/>
      <path class="st0" d="M83.22,71.94l-1.44.23c-.03-.59.03-1.15.54-1.77.47.49.74.93.9,1.54Z"/>
      <path class="st1" d="M83.1,84.05c.02.4.39.32.48.3.22-.03.17.15.13.24-.28.63-1.39-.23-2.33-1.61.88-.26,1.3.21,2.17.48.06.14-.46.4-.46.59Z"/>
    </g>
    <g>
      <path class="st1" d="M74.74,67.62l-2.12-.83c-.33-.13-.66-.1-.87-.4-.19-.26.14-1.75.36-1.88.41-.24.71-.09,1.02.03.4.17.48.98,0,1.08-.2.04-.67.09-.73.25-.22.65,2.02.46,2.35,1.76Z"/>
      <path class="st1" d="M79.4,83.92c1.02.84-1.39-.06-1.94.89-.38-.32-.72-.55-1.09-.74.12-.44.06-.75.43-1.17.83,1.51,2.13.63,2.6,1.02Z"/>
      <path class="st1" d="M72.99,67.7c.66.4,1.02.85,1.69,1.18-.22.4-.62.32-.95.42s-.67-.26-.86-.54l-.34-.49c-.16-.23.14-.76.46-.57Z"/>
      <path class="st1" d="M70.03,62.53c.26.89-.07.58-1.32.94-.28.08-.62-.13-.62-.71l1.94-.23Z"/>
      <path class="st1" d="M69.78,72.05c-.29.49-1.16.88-1.86.34l.55-.23c.23-.1.23-.55.14-.91l1.16.8Z"/>
      <path class="st1" d="M70.54,67.13c.26.33-.35.57-.37,1.08,0,.15-.48.2-.45.07.06-.34-.13-.41-.17-.5-.11-.22.1-.39.31-.54s.23-.2.38-.22c.16-.03.25.03.31.11Z"/>
      <path class="st1" d="M79.35,81.29c-.33-.09-.81-.48-1.36-.48.4-.4.98-.41,1.49-.16.2-.11.31-.44.29-.76l.6.5c-.5.23-.67.5-1.01.9Z"/>
    </g>
    <g>
      <path class="st0" d="M112.53,109.38c-.2.38.14.7.45.47.11-.32.11-.98.59-1.18.2-.09.41.48.39.68-.03.33-.2.62-.57.68.65.57.86.44,1.15.34.55-.19.78-.3.93-1.03.44.17.48.46.68.82.7-.38,1.34-.58,1.94-.4-.09.35-.06.58-.11.66-.07.12-.33.21-.62.28-.12.03-.06.54.09.63.35.2,1.36.15,1.57-.19.51-.83.27-1.67.29-2.54.66.14.91-.4.27-.56-.54.28-.95.56-1.53.42.36-.62.98-1.03,1.52-.86.64.2,1.52.75,1.14,1.48-.21.4-.52.75-.38,1.1.13.32.38.73.89.67-.25-.87-.39-2.02.29-2.51.19-.14.71.08.89-.02.28-.16.25-.71-.08-1.19l1.72-.03-.12-.72c-.02-.15.31-.28.71-.34-.35-.61-1.03-.81-1.78-.66,0-.95.09-1.49.33-1.2l.38.48-.08-1.57c-.02-.44.62-.75.62-1.39-.65-.3-1.41-.39-2.32-.16.23.93.62,1.68.44,2.65-.05.25-.47.28-.62.2-.43-.23-.37-.73-.74-.83-.1-.03-.29.04-.3.21,0,.1.03.22.19.4,0,.28.18.63.35.74.19.12.79-.33.94-.17.25.31-.31.71-.71.83.78.21,1.24.33,1.38,1.06l-1.4-.21-.56.56c-.19.19-.95.23-.92-.14.02-.28.3-.17.38-.12.21.12.55-.3.26-.5-.54-.39-1.92-.18-1.05.32-.73.77-1.81,1.6-3.06,1.17.36-1.12,2.03-.79,2.59-1.83.12-.22-.16-.71-.17-.95l1.33-1.6-.19-1.83c-.08-.79.05-1.76-.05-2.51.67-.5,1.87-.17,2.48.41.06-.75.06-1.47.63-1.94.23-.2.82.11,1.02.17-.09-.82-1.34-.87-1.73-.33-.6.81-1.8,1.19-2.56.8-.17-.34-.09-1.26.3-1.4.52-.2.95.16,1.49.33l-.43-1.36c-.54.36-.99.34-1.36.09-.28-.19-.76-.69-.4-1.13.18-.22.42-.43.42-.66,0-.39-.75-.68-.79-1.21-.02-.28.71-1.1.98-1.14.34-.04.69.12.94.55l.36-.62c-.16.29,6.84-1.57,7.12-.73.79,2.32.77,4.84,1.25,7.2s.52,5.58-.49,7.33-2.37,3.2-3.85,4.52c-.95.85-1.98,1.06-3.14,1.46-3.37,1.17-7.04,1.27-10.51.3l-2.02-.82c-.91-.37-1.39-.85-2.02-1.4-2.01-1.76-3.64-3.79-4.61-6.42l-1.42-5.99c-.37-1.56-.71-2.98-.58-4.57-.2-.51-.56-1.2-.68-1.84l-.91-4.9c-.14-.74-.06-1.45-.23-2.14-.43-1.8-.45-3.48-.77-5.29l-.52-2.86c-.16-.86-.25-1.75-.41-2.62l-.39-2.11c-.13-.71-.26-1.26-.36-2.02l-1.33-10.47c-.08-2.98.86-5.62,2.97-7.65,1.25-1.2,2.76-2.56,4.46-3.12l6.61-1.2.42.54.41-.48c2.09-.16,4.32.23,6.14,1.32,2.41,1.44,3.68,3.95,4.56,6.48.72,2.09,1.84,6.41,1.65,7.83-.17,1.24-1.66,1.76-2.74,1.76-2.58-.01-5.12,1.02-6.06.34-.45-.33-.83-1.01-.56-1.66.19-.47.54-.8.59-1.33l-.66.22c-.58.19.18-1.11-.38-2.24.61-1.44-.96-1.99.61-2.42-.24-.7-.89-1.18-1.63-1.5-.12-.32.13-.76.16-1.05-.75-1.8-2.8-.63-3.19-2.35-.27.33-.26.65-.44.81-.21.18-.64-.07-.98-.3-.24.07-.54.51-.81.41-.46-.17-.8-.5-1.03-.85-.09-.14-.59.19-.66.04-.09-.18-.15-.61-.08-.98-.21-.21-.53.06-.68.16-.26.18-.07.7.18.94.73.71-.9.18-1.1.49s-.07.48.26.8c.2.57-.27,1.43-.57,1.97-.72-.22-.78-.76-1.18-1.19-.21.71.25,1.15.33,1.72l-.34.63.3.59c.09.86.15,1.54-.12,2.48-.54-.23-.9-.53-1.53-.33.31.39.65.48.78.67.22.36.12.81,0,1.29l1.34.52c.1.34.23.75.52.8.64.12,1.03-1.01,1.61-.85.32.09.58.36.68.6.17.4-.19.76-.51.92.25.22.43.21.52.21.21-.01.3.41.17.49-.14.09-.49.06-.73.18.17.47.85.35,1.11.53l.2,1.48c.04.27.39.55.41.74.03.3-.29.62-.62.73,1.48.21.88,1.11,1.46,3.71.08.35-.16,1.03.36,1.39-.56.98-.22,1.71.44,2.49.38.92.45,2.42.47,3.53,0,.56-1.22.47-1.63.55.53.33,1.18.14,1.96.18-.7,1.32.92,1.71.55,2.4-.1.18-.54.43-.55.73-.01.34.47.55.57.71.13.2-.19.59-.49.73l1.09,1.71c.16.25.12.6-.04.75-.34.33-1.26,0-1.29.51-.04.79,1.34.34,1.51.97.1.37-.13.75-.75.91.43.3.83.52,1.03.79.57.78.12,3.46-1.43,3.27.53.83-.47,1.27-.82,2.48,2.05.07,1.48-2.39,2.36-2.12.81.25-.14,1.28.81,2.5.19.24.21.72.12.92-.23.55-1.2.28-1.83,1.03-.27.32-.36.73.14,1.2.35-.45.64-.95.83-1.61l1.34,1.02c.1,2.03,1.38,2.48-.35,2.77.28.12,1.11.29,1.01.6l-.21.64c-.09.28,1.11.3,1.15.7.04.49-1.06,1.02-.38,2.03l-2.24-.49c-.49,1.5-1.48,1.44-1.52,1.58s0,.48.17.55c.44.2.83-.78,1.16-.66.16.06.58.35.76.18.22-.2.18-.59.17-.76,0-.23.62-.29.73.11.15.56-.02,1.19-.21,1.72-.93-.59-1.81-.62-2.38.13-.4-.5-1.02-.41-1.5-.5-.11-.16-.21-.53-.35-.56-.18-.04-.72.37-.57.54,1.1,1.25,2.88.3,3.29,1.6.29-.04.32-.09.4-.13.2-.12.34.03.32.19-.04.47-.55.81-.5.96.05.18.29.26.41.31.27.12.61.02.62-.52.04-.56.91-.31.61.25ZM113.18,50.54c-.08-.62.06-1.02.1-1.18-.04.16-1.02-.33-1.11-.03-.19.62.54.66,1.01,1.21ZM119.13,54.56c-.25.18-.53.22-.64.13-.12-.11-.26-.4-.18-.85-.31-.04-.57.36-.6.64-.02.25-.01.62.19.8.11.1,1.21.06,1.45-.43.08-.16-.13-.35-.21-.29ZM100.58,55.88c-.7-.69-1.05-.76-1.65-.96-.03.74-.1,1.11-.35,1.75.76-.29,1.35-.21,2-.79ZM117.53,56.36l-.46.29c-.4-.29-.73-.85-1.4-.75.23.64,1.14.96,1.49,1.33.1.11.1.56.34.57.1,0,.25.1.21-.16-.08-.57.37-1.62-.18-1.28ZM104.79,70.51c.08-.56-.42-.56-.74-.7s-.65.28-.46.46c.3.28.52.47.68.51.13.03.5-.13.52-.27ZM105.72,75.1c-.58.03-.8.08-.88.14s.08.38.11.5l.19.68c.04.16.46.23.68.14l-.09-1.46ZM127.54,95.88c-.18-.4-.19-.75-.49-.81-.51-.1-.85-.16-1.11.1l1.56,2.1c.48-.39.32-.89.04-1.39ZM108.25,97.37c-.31-.67-.44-.99-.67-1.04s-.76-.12-1.05.01c.06.29.1.73-.13,1.03.83.33,1.46.27,1.85,0ZM125.45,104.77c.9-.87,1.69.34,2.11-.55.17-.36,0-.49-.41-.62-.67-.21-1.09.88-1.26-.25.4-.64.78-1.18.39-2.02.36-.44.87-.6.97-1.36l-1.41.53c.3-.68.38-.98.22-1.32-.21-.44-.83-.29-1.1-.47-.4-.27-.53-.79-1.11-.72l.21,1.02c.11.51.32.75-.02,1.44.81-.25.87-.85,1.45-1.45.31.91-.28,1.4-.73,2,.68-.08,1.03.02,1.15.73.05.27-.13.52-.63.61.33.19.61.56.51.68l-.42.45c-.1.46-.05.85.07,1.29ZM110.02,100.1c-.32-.15-.29-.45-.17-.44.13.01.35.08.57-.19-1.15-.51-2.24-.96-3.68-1.13,1.12,1.07,2.28.69,2.35,1.64.02.3.15.6.47.56.17-.02.69.03.47-.44ZM120.89,100.92c1.18.52,1.58-.76,2.32.12.26-.72.47-1.32.36-2.2l-1.01.82c.65.38.14.97-.27.44-.53.16-1.05.48-1.4.81ZM109.36,101.6c-.51-.51-.74-.67-.97-.55s-.42.28-.35.57c.03.15.04.35.29.6.36-.23.83-.36,1.04-.62ZM109.57,104.79c.27-.07-.13-.57-.32-.6.06-.62.9-.62,1.27-.82l.29-.9c.04-.12.55.15.86-.26-.59-.19-.99-.14-1.49-.37-.17.45-.24,1.11-.58,1.53-.09.09-.39-.16-.35-.32l.16-.59c-.87.29-1.57,1.29-1.1,2.07.17.19.85.37,1.27.27ZM126.25,105.66c-.11-.32-.78-.06-.67.17.26.54.46,1.19,1.07,1.47-.04-.62-.23-1.14-.4-1.64Z"/>
      <path class="st0" d="M113.96,106.92c-.5,1.3-1.4,1.97-1.81,1.45-.15-.18-.41-.68-.02-.87l.61.35c.13.08.57-.32.42-.54-.19-.29-.47-.47-.53-.67-.07-.22.14-.6.36-.79.28.48.51.76.98,1.08Z"/>
      <path class="st0" d="M104.69,55.13l-.18.83c-.04.18-.54.11-.79-.14-.13-.13-.1-.2-.07-.67l.11-1.52c.14-.09.57-.16.63-.31.06-.16.16-.48-.13-.85.32-.31.5.04.69.13.34.15.58.5.31.89-.21.08-.73,0-.94.2.43.45.51.81.37,1.44Z"/>
      <path class="st0" d="M104.65,57.97c0,.44-.18.75-.37.83-.38.15-.52-.03-.67-.43-.09-.25-.59-.56-.41-.88s.54-.48.83-.4c.32.08.63.29.62.89Z"/>
      <path class="st0" d="M104.86,59.81c1.1.59-.71.23-2.4.26.11-.6.38-.8.79-1.12l1.61.86Z"/>
      <path class="st0" d="M115.59,107.37c-.17-.33.07-.57.11-.74.09-.38-.79-.49-.6-1.3.03-.12.31-.14.44-.13.45.04,1.2,1.74.06,2.16Z"/>
      <path class="st0" d="M103.5,56.4c-.09.61-.53.58-.71.63-.24.06-.46-.1-.5-.31-.07-.32-.04-.56.27-.71s.99.08.94.4Z"/>
      <path class="st0" d="M115.29,108.74c-.66.22-.7-.37-.52-.79.11-.26.56-.57.89-.2.18.21.01.86-.37.99Z"/>
      <path class="st1" d="M125.45,104.77c-.13-.44-.18-.83-.07-1.29l.42-.45c.11-.12-.18-.49-.51-.68.5-.09.67-.34.63-.61-.12-.71-.47-.81-1.15-.73.45-.6,1.04-1.09.73-2-.58.6-.64,1.19-1.45,1.45.34-.69.13-.92.02-1.44l-.21-1.02c.58-.07.71.45,1.11.72.27.18.89.03,1.1.47.16.34.08.64-.22,1.32l1.41-.53c-.11.76-.62.92-.97,1.36.39.84,0,1.38-.39,2.02.17,1.14.59.05,1.26.25.4.13.58.26.41.62-.42.88-1.21-.33-2.11.55Z"/>
      <path class="st1" d="M109.57,104.79c-.41.1-1.1-.08-1.27-.27-.47-.78.23-1.77,1.1-2.07l-.16.59c-.04.16.25.41.35.32.33-.42.41-1.08.58-1.53.5.23.9.18,1.49.37-.31.42-.82.14-.86.26l-.29.9c-.38.2-1.21.2-1.27.82.2.03.59.54.32.6Z"/>
      <path class="st1" d="M110.02,100.1c.23.47-.29.42-.47.44-.32.04-.45-.26-.47-.56-.06-.94-1.22-.56-2.35-1.64,1.45.16,2.54.61,3.68,1.13-.22.27-.43.2-.57.19-.12-.01-.15.29.17.44Z"/>
      <path class="st1" d="M127.54,95.88c.28.5.45,1-.04,1.39l-1.56-2.1c.26-.26.61-.2,1.11-.1.3.06.3.4.49.81Z"/>
      <path class="st1" d="M120.89,100.92c.34-.33.87-.65,1.4-.81.41.52.91-.06.27-.44l1.01-.82c.11.88-.1,1.48-.36,2.2-.74-.88-1.14.41-2.32-.12Z"/>
      <path class="st1" d="M100.58,55.88c-.66.58-1.24.5-2,.79.25-.64.32-1.01.35-1.75.59.21.95.27,1.65.96Z"/>
      <path class="st1" d="M108.25,97.37c-.4.27-1.02.33-1.85,0,.23-.3.19-.74.13-1.03.29-.14.82-.07,1.05-.01s.36.38.67,1.04Z"/>
      <path class="st1" d="M117.53,56.36c.55-.34.1.71.18,1.28.03.25-.11.16-.21.16-.23-.01-.24-.46-.34-.57-.35-.37-1.26-.69-1.49-1.33.68-.1,1,.46,1.4.75l.46-.29Z"/>
      <path class="st1" d="M119.13,54.56c.08-.06.29.13.21.29-.24.49-1.34.53-1.45.43-.2-.19-.21-.55-.19-.8.02-.28.29-.67.6-.64-.08.44.06.74.18.85.11.09.4.05.64-.13Z"/>
      <path class="st1" d="M105.72,75.1l.09,1.46c-.22.09-.63.02-.68-.14l-.19-.68c-.03-.12-.2-.43-.11-.5s.3-.11.88-.14Z"/>
      <path class="st1" d="M113.18,50.54c-.46-.55-1.2-.59-1.01-1.21.09-.31,1.06.19,1.11.03-.04.16-.18.56-.1,1.18Z"/>
      <path class="st1" d="M126.25,105.66c.17.5.37,1.02.4,1.64-.62-.27-.82-.93-1.07-1.47-.11-.23.56-.49.67-.17Z"/>
      <path class="st1" d="M109.36,101.6c-.21.27-.68.39-1.04.62-.25-.25-.25-.45-.29-.6-.06-.29.12-.44.35-.57s.46.04.97.55Z"/>
      <path class="st1" d="M104.79,70.51c-.02.14-.39.3-.52.27-.16-.03-.38-.22-.68-.51-.19-.18.14-.6.46-.46s.82.14.74.7Z"/>
    </g>
    <g>
      <path class="st0" d="M63.28,101.85c.23.04.62.17.74.34s.15.75,0,.98c-.51.76.04,1.58.14,2.28.24,1.72.48,3.46.52,5.2.07,3.27-2.82,9.39-4.99,10.2l-2.84,1.07c-2.26.85-4.58-.36-6.49.29l-1.12-.22c-2.37.58-2.62-2.8-3.16-4.39-.27-.8-.49-1.23-.11-1.96s1.04-.67,1.85-.82l3.1-.54c.6-.11,1.48-.56,2.14-.74,1.11-1.21,1.82-3.22,1.35-4.75-.14-.46-.23-.54-.31-1.13l-.97-7.31-.52-4.35c-.41-3.45-1.45-6.76-1.66-10.31l-.48-3.15c-.2-1.31-.13-2.43-.66-3.7-.34-.8-.19-1.87-.32-2.77l-1.22-8.38c-.22-1.54-.03-2.91-.78-4.39l-.09-1.57c-.46-1.16-.55-3.27.46-4.16,2.35-.85,4.85-1.05,7.3-1.38.77-.1,1.48.25,1.87.63.98.95.58,3.46.67,4.12.36,2.51,1.11,4.88,1.08,7.49,0,.28-.41.52-.62.59.47.21.67.21.82.3.13.08.45,3.15.8,4.99.13.67-.06.99.04,1.62l.52,3.16c.02.13.3.38.24.47-.06.1-.17.28-.46.49.74.36.4,1.11.32,1.61.59.79.93,1.72.58,2.8.27,1.64,1.06,3.14,0,3.96,1.95.57.75,1.83,1.02,3.94-.57.15-1.02.15-1.46.42.78.23,1.3,0,2.13-.21l.26,4.16c-1.01,0-1.86.24-2.43.88.86.17,1.82,1.01,1.41,1.55-.21.27-1.01.77-.78,1.11.09.13.63-.04.75.04.15.1.07.42-.05.75.57-.14,1.23-.5,1.65-.35.28.32.28.77-.29,1.15ZM53.01,60.59c-.73-.49-.89-.89-1.02-1.52-.57-.11-1.09-.29-1.59-.2l.04.27,1.21.24c.08.35.04.9.37,1.03.4.16.64.51.99.18ZM52.54,64.54c.43.06.62-.8.49-1.53-.29-.11-.57.1-.76.44-.16.28-.13.73.26,1.08ZM56.18,66.59c-.17-.22-.48-.33-.74-.45.31-.53.9-.33,1.22-.53-.01-.23-.51-.53-.61-.8l-1.38,1.48,1.31.54.19-.24ZM52.75,67.26c-.58.07-.44-.53-.29-.52.16.01.66.19.69-.46-.76.31-1.21.07-1.68-.54-.18.57.03.93.56,1.25-.08.54-.36.94-.29,1.48.56-.18.38-.65.51-.79.12-.12.43-.18.74-.13.41-.15.13-.61-.24-.3ZM56.29,66.71l-.16.15c.1.09.24.35.58.38.18.02.23-.43-.01-.41-.14.01-.31-.07-.4-.12ZM52.66,72.86c-.07-1.57,1.32-2.56.47-2.75-.32-.07-1.18.54-1.18.53.04.22.73,1.01.23,1.08-.24.03-.41-.03-.83,0,.41.53.65.79,1.32,1.13ZM54.09,72.63c.36.18.75-.14.77-.32.02-.27-.36-1.07-.7-1.01-.13.02-.32.21-.45.54-.22-.23-.51.02-.32.19.41-.24.7-.02.77.1s-.18.44-.07.5ZM55.3,86.35c.13-.37-.09-.67-.23-.62l-.58.2c-.4.14-.72.15-.99.31s-.35.65.05.7c.55-.15,1.14-.8,1.76-.59ZM61.28,96.19c1.46-1.04,1.02-2.61.57-2.73-.66-.19-1.19-.12-1.64-.94-.29.69-.66,1.04-.69,1.68.41.06.68.27.71.45.04.21-.16.57-.17.74h.8c.16.01.43.23.42.8ZM61.46,101.34c-.47.09-.73-.11-1.32-.06.52.68,1.15,1.05,2.07.97l-.75-.91ZM62.67,104.52c.17-.38-.25-.51-.39-.4l-.38.3c-.2.16-.49.22-.55.36-.07.15.06.61.2.55.44-.19.9-.29,1.12-.8ZM59.39,111.42c-.1-.3-.2-.65-.39-.91-.12-.17-.6-.17-.83-.22-.2-.41-.24-.97-.24-1.36l.72.19c.17.04.12-.16.06-.23-.05-.05-.05-.28-.21-.34-1.71-.65-.3-2.69-1.47-3.03.06,1.03-.16,2.12.18,3.13s.74,1.79.75,2.78c.61-.22.94-.04,1.19.2l.24-.21ZM62.37,106.84c-.82-.08-1.14.14-1.39.59.76.15.9.72.82,1.25.8-.1.08-.79.57-1.84ZM56.03,110.26c.16-.57.3-.82.64-1.12l-.4-2.12-1.08,2.04c.41.08.6.25.65.38.06.15-.27.46.19.82ZM59.45,111.5l-.21.23c-.2.23.06.43.31.28.08-.05.12-.07.11-.24,0-.15-.04-.23-.21-.27Z"/>
      <path class="st1" d="M61.28,96.19c0-.58-.27-.79-.42-.79h-.8c.01-.18.21-.54.17-.75-.03-.19-.3-.39-.71-.45.03-.64.41-.99.69-1.68.45.82.98.75,1.64.94.44.13.89,1.69-.57,2.73Z"/>
      <path class="st1" d="M59.15,111.63c-.25-.25-.58-.42-1.19-.2-.01-.99-.43-1.82-.75-2.78-.33-1.01-.12-2.1-.18-3.13,1.17.35-.24,2.38,1.47,3.03.16.06.16.29.21.34.06.06.1.27-.06.23l-.72-.19c0,.4.04.95.24,1.36.23.05.71.05.83.22.19.26.29.61.39.91l.06.08c.17.04.2.13.21.27,0,.17-.03.19-.11.24-.25.15-.51-.05-.31-.28l-.1-.1Z"/>
      <path class="st1" d="M52.66,72.86c-.66-.34-.9-.6-1.32-1.13.42-.04.59.02.83,0,.5-.07-.19-.86-.23-1.08,0,0,.86-.6,1.18-.53.85.2-.54,1.18-.47,2.75Z"/>
      <path class="st1" d="M56.03,110.26c-.45-.36-.13-.67-.19-.82-.05-.14-.24-.3-.65-.38l1.08-2.04.4,2.12c-.34.31-.48.55-.64,1.12Z"/>
      <path class="st1" d="M52.75,67.26c.37-.31.65.15.24.3-.31-.05-.63.01-.74.13-.13.13.04.61-.51.79-.07-.55.21-.94.29-1.48-.54-.32-.74-.68-.56-1.25.47.6.92.85,1.68.54-.03.65-.52.47-.69.46-.15-.01-.29.59.29.52Z"/>
      <path class="st1" d="M55.98,66.83l-1.31-.54,1.38-1.48c.1.27.59.57.61.8-.32.2-.92,0-1.22.53.26.12.57.24.74.45.03.04.07.1.11.12.1.05.26.13.4.12.24-.02.19.43.01.41-.34-.03-.48-.29-.58-.38-.03-.02-.09-.04-.15-.03Z"/>
      <path class="st1" d="M62.37,106.84c-.49,1.04.23,1.74-.57,1.84.08-.53-.06-1.1-.82-1.25.25-.45.57-.67,1.39-.59Z"/>
      <path class="st1" d="M53.01,60.59c-.35.33-.59-.01-.99-.18-.33-.13-.29-.68-.37-1.03l-1.21-.24-.04-.27c.51-.08,1.02.09,1.59.2.12.63.28,1.03,1.02,1.52Z"/>
      <path class="st1" d="M55.3,86.35c-.61-.21-1.21.44-1.76.59-.4-.06-.3-.56-.05-.7s.58-.17.99-.31l.58-.2c.14-.05.36.25.23.62Z"/>
      <path class="st1" d="M54.09,72.63c-.11-.06.14-.39.07-.5s-.36-.34-.77-.1c-.19-.17.1-.43.32-.19.13-.33.32-.51.45-.54.34-.06.72.74.7,1.01-.01.18-.4.5-.77.32Z"/>
      <path class="st1" d="M52.54,64.54c-.39-.36-.42-.8-.26-1.08.19-.35.47-.56.76-.44.13.73-.06,1.59-.49,1.53Z"/>
      <path class="st1" d="M61.46,101.34l.75.91c-.92.08-1.56-.29-2.07-.97.6-.05.85.15,1.32.06Z"/>
      <path class="st1" d="M62.67,104.52c-.22.51-.68.61-1.12.8-.14.06-.26-.4-.2-.55.06-.14.35-.2.55-.36l.38-.3c.14-.11.56.02.39.4Z"/>
    </g>
  </g>
</svg>